<svg xmlns="http://www.w3.org/2000/svg" width="240" height="200" viewBox="0 0 240 200" role="img" aria-label="Illustration of a umbrella"><ellipse cx="122" cy="174" rx="59" ry="8" fill="#173b31" opacity=".055"/><path d="M120 37v114c0 21 27 21 27 0" fill="none" stroke="#466d5b" stroke-width="6" stroke-linecap="round"/><path d="M49 102c6-83 135-83 142 0-17-16-32-16-47 0-16-16-32-16-48 0-16-16-31-16-47 0Z" fill="#d58968" stroke="#c27858" stroke-width="2"/><path d="M120 42c-17 18-24 35-24 59m24-59c17 18 24 35 24 59" fill="none" stroke="#edb495" stroke-width="3"/><path d="M120 33v9" stroke="#466d5b" stroke-width="5" stroke-linecap="round"/></svg>